<mxfile host="app.diagrams.net" agent="Mozilla/5.0 (Windows NT 10.0; Win64; x64; rv:128.0) Gecko/20100101 Firefox/128.0" version="28.2.8">
  <diagram name="Page-1" id="uACb4W8uzrnaDRuGBQVx">
    <mxGraphModel dx="2593" dy="1364" grid="1" gridSize="10" guides="1" tooltips="1" connect="1" arrows="1" fold="1" page="1" pageScale="1" pageWidth="2339" pageHeight="3300" math="0" shadow="0">
      <root>
        <mxCell id="0" />
        <mxCell id="1" parent="0" />
        <mxCell id="P7VmRZu7HZeBI5Y8xL4--1" value="&lt;p align=&quot;center&quot; style=&quot;margin: 4px 0px 0px;&quot;&gt;&lt;b style=&quot;background-color: light-dark(#ffffff, var(--ge-dark-color, #121212));&quot;&gt;BookStore&lt;/b&gt;&lt;/p&gt;&lt;hr align=&quot;center&quot; size=&quot;1&quot; style=&quot;border-style:solid;&quot;&gt;&lt;div&gt;- name: String;&lt;/div&gt;&lt;div&gt;- bookManager: BookManager;&lt;/div&gt;&lt;div&gt;- orderManager: OrderManager;&lt;/div&gt;&lt;div&gt;- requestManager: RequestManager;&lt;/div&gt;&lt;hr align=&quot;center&quot; size=&quot;1&quot; style=&quot;border-style:solid;&quot;&gt;&lt;p align=&quot;center&quot; style=&quot;margin:0px;margin-left:4px;&quot;&gt;+ getName(): void;&lt;/p&gt;&lt;p align=&quot;center&quot; style=&quot;margin:0px;margin-left:4px;&quot;&gt;+ createRequest(String bookTitle): Request;&lt;/p&gt;&lt;p align=&quot;center&quot; style=&quot;margin:0px;margin-left:4px;&quot;&gt;+ createOrder(String bookTitle): Order;&lt;/p&gt;&lt;p align=&quot;center&quot; style=&quot;margin:0px;margin-left:4px;&quot;&gt;+ findBook(String bookTitle): Optional&amp;lt;Book&amp;gt;;&lt;/p&gt;&lt;p align=&quot;center&quot; style=&quot;margin:0px;margin-left:4px;&quot;&gt;+ addBook(String bookTitle): Book;&lt;/p&gt;&lt;p align=&quot;center&quot; style=&quot;margin:0px;margin-left:4px;&quot;&gt;+ removeBook(int id): Optional&amp;lt;Book&amp;gt;;&lt;/p&gt;&lt;p align=&quot;center&quot; style=&quot;margin:0px;margin-left:4px;&quot;&gt;+ cancelRequest(int id): Optional&amp;lt;Request&amp;gt;;&lt;/p&gt;&lt;p align=&quot;center&quot; style=&quot;margin:0px;margin-left:4px;&quot;&gt;+ closeOrder(int id, OrderStatus status): Optional&amp;lt;Order&amp;gt;&lt;br&gt;&lt;/p&gt;" style="verticalAlign=top;align=center;overflow=fill;html=1;whiteSpace=wrap;" vertex="1" parent="1">
          <mxGeometry x="730" y="670" width="320" height="230" as="geometry" />
        </mxCell>
        <mxCell id="P7VmRZu7HZeBI5Y8xL4--2" value="&lt;p style=&quot;margin: 4px 0px 0px;&quot;&gt;&lt;b&gt;OrderManager&lt;/b&gt;&lt;/p&gt;&lt;hr style=&quot;border-style:solid;&quot; size=&quot;1&quot;&gt;&lt;p style=&quot;margin:0px;margin-left:4px;&quot;&gt;- orderArchive: OrderArchive;&lt;/p&gt;&lt;p style=&quot;margin:0px;margin-left:4px;&quot;&gt;&lt;/p&gt;&lt;hr style=&quot;border-style:solid;&quot; size=&quot;1&quot;&gt;&lt;div&gt;+ findOrder(int id): Optional&amp;lt;Order&amp;gt;;&lt;/div&gt;&lt;div&gt;+ createOrder(int id): Order;&lt;/div&gt;&lt;div&gt;+ removeOrder(int id): Optional&amp;lt;Order&amp;gt;;&lt;/div&gt;&lt;div&gt;- generateId(): int;&lt;br&gt;&lt;/div&gt;&lt;p style=&quot;margin:0px;margin-left:4px;&quot;&gt;&lt;/p&gt;" style="verticalAlign=top;align=center;overflow=fill;html=1;whiteSpace=wrap;" vertex="1" parent="1">
          <mxGeometry x="450" y="710" width="220" height="130" as="geometry" />
        </mxCell>
        <mxCell id="P7VmRZu7HZeBI5Y8xL4--4" value="&lt;p style=&quot;margin: 4px 0px 0px;&quot;&gt;&lt;b&gt;BookManager&lt;/b&gt;&lt;/p&gt;&lt;hr style=&quot;border-style:solid;&quot; size=&quot;1&quot;&gt;&lt;p style=&quot;margin:0px;margin-left:4px;&quot;&gt;- bookCatalog: BookArchive;&lt;/p&gt;&lt;hr style=&quot;border-style:solid;&quot; size=&quot;1&quot;&gt;&lt;div&gt;+ findBook(int id): Optional&amp;lt;Book&amp;gt;;&lt;/div&gt;&lt;div&gt;+ findBookByTitle(String bookTitle): Optional&amp;lt;Book&amp;gt;;&lt;/div&gt;&lt;div&gt;+ addBook(String title): Book;&lt;/div&gt;&lt;div&gt;+ removeBook (int id): Optional&amp;lt;Book&amp;gt;;&lt;/div&gt;&lt;div&gt;- generateId(): int;&lt;br&gt;&lt;/div&gt;&lt;p style=&quot;margin:0px;margin-left:4px;&quot;&gt;&lt;/p&gt;" style="verticalAlign=top;align=center;overflow=fill;html=1;whiteSpace=wrap;" vertex="1" parent="1">
          <mxGeometry x="1100" y="700" width="290" height="140" as="geometry" />
        </mxCell>
        <mxCell id="P7VmRZu7HZeBI5Y8xL4--5" value="&lt;p style=&quot;margin: 4px 0px 0px;&quot;&gt;&lt;b&gt;RequestManager&lt;/b&gt;&lt;/p&gt;&lt;hr style=&quot;border-style:solid;&quot; size=&quot;1&quot;&gt;&lt;p style=&quot;margin:0px;margin-left:4px;&quot;&gt;- requestArchive: RequestArchive;&lt;/p&gt;&lt;hr style=&quot;border-style:solid;&quot; size=&quot;1&quot;&gt;&lt;div&gt;+ findRequest(int id): Optional&amp;lt;Request&amp;gt;;&lt;/div&gt;&lt;div&gt;+ findRequestByTitle(String bookTitle): Optional&amp;lt;Request&amp;gt;;&lt;/div&gt;&lt;div&gt;&lt;div&gt;+ createRequest(String bookTitle): Request;&lt;/div&gt;&lt;div&gt;+ removeRequest(int id): Optional&amp;lt;Request&amp;gt;;&lt;/div&gt;- generateId(): int;&lt;/div&gt;&lt;p style=&quot;margin:0px;margin-left:4px;&quot;&gt;&lt;/p&gt;" style="verticalAlign=top;align=center;overflow=fill;html=1;whiteSpace=wrap;" vertex="1" parent="1">
          <mxGeometry x="725" y="480" width="330" height="140" as="geometry" />
        </mxCell>
        <mxCell id="P7VmRZu7HZeBI5Y8xL4--7" value="" style="endArrow=diamondThin;endFill=0;endSize=24;html=1;rounded=0;entryX=0;entryY=0.5;entryDx=0;entryDy=0;exitX=1.001;exitY=0.577;exitDx=0;exitDy=0;exitPerimeter=0;" edge="1" parent="1" source="P7VmRZu7HZeBI5Y8xL4--2" target="P7VmRZu7HZeBI5Y8xL4--1">
          <mxGeometry width="160" relative="1" as="geometry">
            <mxPoint x="760" y="610" as="sourcePoint" />
            <mxPoint x="920" y="610" as="targetPoint" />
          </mxGeometry>
        </mxCell>
        <mxCell id="P7VmRZu7HZeBI5Y8xL4--8" value="" style="endArrow=diamondThin;endFill=0;endSize=24;html=1;rounded=0;entryX=1;entryY=0.5;entryDx=0;entryDy=0;exitX=0.001;exitY=0.609;exitDx=0;exitDy=0;exitPerimeter=0;" edge="1" parent="1" source="P7VmRZu7HZeBI5Y8xL4--4" target="P7VmRZu7HZeBI5Y8xL4--1">
          <mxGeometry width="160" relative="1" as="geometry">
            <mxPoint x="760" y="610" as="sourcePoint" />
            <mxPoint x="920" y="610" as="targetPoint" />
          </mxGeometry>
        </mxCell>
        <mxCell id="P7VmRZu7HZeBI5Y8xL4--9" value="" style="endArrow=diamondThin;endFill=0;endSize=24;html=1;rounded=0;entryX=0.5;entryY=0;entryDx=0;entryDy=0;exitX=0.5;exitY=1;exitDx=0;exitDy=0;" edge="1" parent="1" source="P7VmRZu7HZeBI5Y8xL4--5" target="P7VmRZu7HZeBI5Y8xL4--1">
          <mxGeometry width="160" relative="1" as="geometry">
            <mxPoint x="850" y="680" as="sourcePoint" />
            <mxPoint x="1010" y="680" as="targetPoint" />
          </mxGeometry>
        </mxCell>
        <mxCell id="P7VmRZu7HZeBI5Y8xL4--10" value="&lt;p style=&quot;margin: 4px 0px 0px;&quot;&gt;&lt;b&gt;Book&lt;/b&gt;&lt;/p&gt;&lt;hr style=&quot;border-style:solid;&quot; size=&quot;1&quot;&gt;&lt;p style=&quot;margin:0px;margin-left:4px;&quot;&gt;- status: BookStatus;&lt;/p&gt;&lt;p style=&quot;margin:0px;margin-left:4px;&quot;&gt;- title: String title;&lt;br&gt;&lt;/p&gt;&lt;p style=&quot;margin:0px;margin-left:4px;&quot;&gt;- id: int;&lt;br&gt;&lt;/p&gt;&lt;hr style=&quot;border-style:solid;&quot; size=&quot;1&quot;&gt;&lt;p style=&quot;margin:0px;margin-left:4px;&quot;&gt;+ getStatus(): BookStatus;&lt;/p&gt;&lt;p style=&quot;margin:0px;margin-left:4px;&quot;&gt;+ getTitle(): String;&lt;/p&gt;&lt;p style=&quot;margin:0px;margin-left:4px;&quot;&gt;+ setStatus(BookStatus newStatus): void;&lt;br&gt;+ getId(): int;&lt;/p&gt;" style="verticalAlign=top;align=center;overflow=fill;html=1;whiteSpace=wrap;" vertex="1" parent="1">
          <mxGeometry x="1130" y="900" width="230" height="160" as="geometry" />
        </mxCell>
        <mxCell id="P7VmRZu7HZeBI5Y8xL4--11" value="&lt;p style=&quot;margin: 4px 0px 0px;&quot;&gt;&lt;b&gt;Order&lt;/b&gt;&lt;/p&gt;&lt;hr style=&quot;border-style:solid;&quot; size=&quot;1&quot;&gt;&lt;p style=&quot;margin:0px;margin-left:4px;&quot;&gt;- status: OrderStatus;&lt;br&gt;- id: int;&lt;br&gt;- bookId: int;&lt;/p&gt;&lt;hr style=&quot;border-style:solid;&quot; size=&quot;1&quot;&gt;&lt;p style=&quot;margin:0px;margin-left:4px;&quot;&gt;+ getStatus(): OrderStatus;&lt;br&gt;+ setStatus(OrderStatus newStatus): void;&lt;br&gt;+ getId(): int;&lt;br&gt;+ getBookId(): int;&lt;/p&gt;" style="verticalAlign=top;align=center;overflow=fill;html=1;whiteSpace=wrap;" vertex="1" parent="1">
          <mxGeometry x="440" y="890" width="240" height="160" as="geometry" />
        </mxCell>
        <mxCell id="P7VmRZu7HZeBI5Y8xL4--13" value="" style="endArrow=diamondThin;endFill=1;endSize=24;html=1;rounded=0;entryX=0.5;entryY=1;entryDx=0;entryDy=0;exitX=0.5;exitY=0;exitDx=0;exitDy=0;" edge="1" parent="1" source="P7VmRZu7HZeBI5Y8xL4--10" target="P7VmRZu7HZeBI5Y8xL4--4">
          <mxGeometry width="160" relative="1" as="geometry">
            <mxPoint x="1250" y="750" as="sourcePoint" />
            <mxPoint x="1410" y="750" as="targetPoint" />
          </mxGeometry>
        </mxCell>
        <mxCell id="P7VmRZu7HZeBI5Y8xL4--14" value="" style="endArrow=diamondThin;endFill=1;endSize=24;html=1;rounded=0;exitX=0.5;exitY=0;exitDx=0;exitDy=0;entryX=0.5;entryY=1;entryDx=0;entryDy=0;" edge="1" parent="1" source="P7VmRZu7HZeBI5Y8xL4--11" target="P7VmRZu7HZeBI5Y8xL4--2">
          <mxGeometry width="160" relative="1" as="geometry">
            <mxPoint x="410" y="720" as="sourcePoint" />
            <mxPoint x="430" y="760" as="targetPoint" />
          </mxGeometry>
        </mxCell>
        <mxCell id="P7VmRZu7HZeBI5Y8xL4--15" value="&lt;p style=&quot;margin: 4px 0px 0px;&quot;&gt;&lt;b&gt;Request&lt;/b&gt;&lt;/p&gt;&lt;hr style=&quot;border-style:solid;&quot; size=&quot;1&quot;&gt;&lt;p style=&quot;margin:0px;margin-left:4px;&quot;&gt;- status: RequestStatus;&lt;br&gt;- id: int;&lt;br&gt;- bookTitle: String;&lt;/p&gt;&lt;hr style=&quot;border-style:solid;&quot; size=&quot;1&quot;&gt;&lt;p style=&quot;margin:0px;margin-left:4px;&quot;&gt;+ getStatus(): RequestStatus;&lt;br&gt;+ setStatus(Request Status newStatus): void;&lt;br&gt;+ getId(): int;&lt;br&gt;+ getBookTitle(): String;&lt;/p&gt;" style="verticalAlign=top;align=center;overflow=fill;html=1;whiteSpace=wrap;" vertex="1" parent="1">
          <mxGeometry x="430" y="280" width="260" height="160" as="geometry" />
        </mxCell>
        <mxCell id="P7VmRZu7HZeBI5Y8xL4--16" value="" style="endArrow=diamondThin;endFill=1;endSize=24;html=1;rounded=0;entryX=0.5;entryY=0;entryDx=0;entryDy=0;exitX=0.5;exitY=1;exitDx=0;exitDy=0;" edge="1" parent="1" source="P7VmRZu7HZeBI5Y8xL4--15" target="P7VmRZu7HZeBI5Y8xL4--5">
          <mxGeometry width="160" relative="1" as="geometry">
            <mxPoint x="860" y="610" as="sourcePoint" />
            <mxPoint x="1020" y="610" as="targetPoint" />
            <Array as="points">
              <mxPoint x="560" y="450" />
              <mxPoint x="890" y="450" />
            </Array>
          </mxGeometry>
        </mxCell>
        <mxCell id="P7VmRZu7HZeBI5Y8xL4--17" value="&lt;p style=&quot;margin: 4px 0px 0px;&quot;&gt;&lt;b&gt;BookArchive&lt;/b&gt;&lt;/p&gt;&lt;hr style=&quot;border-style:solid;&quot; size=&quot;1&quot;&gt;&lt;p style=&quot;margin:0px;margin-left:4px;&quot;&gt;- books: Map&amp;lt;Integer, Book&amp;gt;;&lt;br&gt;&lt;/p&gt;&lt;hr style=&quot;border-style:solid;&quot; size=&quot;1&quot;&gt;&lt;p style=&quot;margin:0px;margin-left:4px;&quot;&gt;+ get(String bookTitle): Optional&amp;lt;Book&amp;gt;;&lt;/p&gt;&lt;p style=&quot;margin:0px;margin-left:4px;&quot;&gt;+ put(Book newBook): void;&lt;br&gt;+ remove(int id): Optional&amp;lt;Book&amp;gt;;&lt;br&gt;+ get(int id): Optional&amp;lt;Book&amp;gt;;&lt;/p&gt;" style="verticalAlign=top;align=center;overflow=fill;html=1;whiteSpace=wrap;" vertex="1" parent="1">
          <mxGeometry x="1125" y="487.5" width="240" height="125" as="geometry" />
        </mxCell>
        <mxCell id="P7VmRZu7HZeBI5Y8xL4--20" value="&lt;p style=&quot;margin: 4px 0px 0px;&quot;&gt;&lt;i&gt;&amp;lt;&amp;lt;Interface&amp;gt;&amp;gt;&lt;/i&gt;&lt;/p&gt;&lt;p style=&quot;margin: 4px 0px 0px;&quot;&gt;&lt;b&gt;Archive&lt;/b&gt;&lt;br&gt;&lt;/p&gt;&lt;hr style=&quot;border-style:solid;&quot; size=&quot;1&quot;&gt;&lt;p style=&quot;margin:0px;margin-left:4px;&quot;&gt;+ put(T element): void;&lt;br&gt;+ remove(int id): Optional&amp;lt;T&amp;gt;;&lt;br&gt;+ get(int id): Optional&amp;lt;T&amp;gt;;&lt;/p&gt;" style="verticalAlign=top;align=center;overflow=fill;html=1;whiteSpace=wrap;" vertex="1" parent="1">
          <mxGeometry x="1105" y="247" width="280" height="110" as="geometry" />
        </mxCell>
        <mxCell id="P7VmRZu7HZeBI5Y8xL4--24" value="" style="endArrow=diamondThin;endFill=0;endSize=24;html=1;rounded=0;entryX=0.5;entryY=0;entryDx=0;entryDy=0;exitX=0.5;exitY=1;exitDx=0;exitDy=0;" edge="1" parent="1" source="P7VmRZu7HZeBI5Y8xL4--17" target="P7VmRZu7HZeBI5Y8xL4--4">
          <mxGeometry width="160" relative="1" as="geometry">
            <mxPoint x="570" y="640" as="sourcePoint" />
            <mxPoint x="730" y="640" as="targetPoint" />
          </mxGeometry>
        </mxCell>
        <mxCell id="P7VmRZu7HZeBI5Y8xL4--25" value="" style="endArrow=block;dashed=1;endFill=0;endSize=12;html=1;rounded=0;exitX=0.5;exitY=0;exitDx=0;exitDy=0;entryX=0.5;entryY=1;entryDx=0;entryDy=0;" edge="1" parent="1" source="P7VmRZu7HZeBI5Y8xL4--17" target="P7VmRZu7HZeBI5Y8xL4--20">
          <mxGeometry width="160" relative="1" as="geometry">
            <mxPoint x="740" y="500" as="sourcePoint" />
            <mxPoint x="660" y="150" as="targetPoint" />
            <Array as="points">
              <mxPoint x="1245" y="420" />
            </Array>
          </mxGeometry>
        </mxCell>
        <mxCell id="P7VmRZu7HZeBI5Y8xL4--27" value="&lt;p style=&quot;margin: 4px 0px 0px;&quot;&gt;&lt;b&gt;RequestArchive&lt;/b&gt;&lt;/p&gt;&lt;hr style=&quot;border-style:solid;&quot; size=&quot;1&quot;&gt;&lt;p style=&quot;margin:0px;margin-left:4px;&quot;&gt;- requests: Map&amp;lt;Integer,&amp;nbsp;Request&amp;gt;;&lt;br&gt;&lt;/p&gt;&lt;hr style=&quot;border-style:solid;&quot; size=&quot;1&quot;&gt;&lt;p style=&quot;margin:0px;margin-left:4px;&quot;&gt;+ get(String bookTitle): Optional&amp;lt;Request&amp;gt;;&lt;/p&gt;&lt;p style=&quot;margin:0px;margin-left:4px;&quot;&gt;+ put(Request newRequest): void;&lt;br&gt;+ remove(int id): Optional&amp;lt;Request&amp;gt;;&lt;br&gt;+ get(int id): Optional&amp;lt;Request&amp;gt;;&lt;/p&gt;" style="verticalAlign=top;align=center;overflow=fill;html=1;whiteSpace=wrap;" vertex="1" parent="1">
          <mxGeometry x="765" y="297.5" width="250" height="125" as="geometry" />
        </mxCell>
        <mxCell id="P7VmRZu7HZeBI5Y8xL4--28" value="" style="endArrow=diamondThin;endFill=0;endSize=24;html=1;rounded=0;entryX=1;entryY=0.5;entryDx=0;entryDy=0;exitX=1;exitY=0.75;exitDx=0;exitDy=0;" edge="1" parent="1" source="P7VmRZu7HZeBI5Y8xL4--27" target="P7VmRZu7HZeBI5Y8xL4--5">
          <mxGeometry width="160" relative="1" as="geometry">
            <mxPoint x="930" y="410" as="sourcePoint" />
            <mxPoint x="1090" y="410" as="targetPoint" />
            <Array as="points">
              <mxPoint x="1100" y="390" />
              <mxPoint x="1100" y="550" />
            </Array>
          </mxGeometry>
        </mxCell>
        <mxCell id="P7VmRZu7HZeBI5Y8xL4--29" value="" style="endArrow=block;dashed=1;endFill=0;endSize=12;html=1;rounded=0;exitX=1;exitY=0.25;exitDx=0;exitDy=0;entryX=0;entryY=0.75;entryDx=0;entryDy=0;" edge="1" parent="1" source="P7VmRZu7HZeBI5Y8xL4--27" target="P7VmRZu7HZeBI5Y8xL4--20">
          <mxGeometry width="160" relative="1" as="geometry">
            <mxPoint x="850" y="170" as="sourcePoint" />
            <mxPoint x="1010" y="120" as="targetPoint" />
          </mxGeometry>
        </mxCell>
        <mxCell id="P7VmRZu7HZeBI5Y8xL4--30" value="&lt;p style=&quot;margin: 4px 0px 0px;&quot;&gt;&lt;b&gt;OrderArchive&lt;/b&gt;&lt;/p&gt;&lt;hr style=&quot;border-style:solid;&quot; size=&quot;1&quot;&gt;&lt;p style=&quot;margin:0px;margin-left:4px;&quot;&gt;- orders: Map&amp;lt;Integer, Order&amp;gt;;&lt;br&gt;&lt;/p&gt;&lt;hr style=&quot;border-style:solid;&quot; size=&quot;1&quot;&gt;&lt;p style=&quot;margin:0px;margin-left:4px;&quot;&gt;+ put(Order newOrder): void;&lt;br&gt;+ remove(int id): Optional&amp;lt;Order&amp;gt;;&lt;br&gt;+ get(int id): Optional&amp;lt;Order&amp;gt;;&lt;/p&gt;" style="verticalAlign=top;align=center;overflow=fill;html=1;whiteSpace=wrap;" vertex="1" parent="1">
          <mxGeometry x="440" y="487.5" width="240" height="125" as="geometry" />
        </mxCell>
        <mxCell id="P7VmRZu7HZeBI5Y8xL4--31" value="" style="endArrow=block;dashed=1;endFill=0;endSize=12;html=1;rounded=0;exitX=0;exitY=0.5;exitDx=0;exitDy=0;entryX=0;entryY=0.25;entryDx=0;entryDy=0;" edge="1" parent="1" source="P7VmRZu7HZeBI5Y8xL4--30" target="P7VmRZu7HZeBI5Y8xL4--20">
          <mxGeometry width="160" relative="1" as="geometry">
            <mxPoint x="750" y="470" as="sourcePoint" />
            <mxPoint x="620" y="110" as="targetPoint" />
            <Array as="points">
              <mxPoint x="410" y="550" />
              <mxPoint x="410" y="247" />
              <mxPoint x="1030" y="247" />
              <mxPoint x="1030" y="275" />
            </Array>
          </mxGeometry>
        </mxCell>
        <mxCell id="P7VmRZu7HZeBI5Y8xL4--32" value="" style="endArrow=diamondThin;endFill=0;endSize=24;html=1;rounded=0;entryX=0.5;entryY=0;entryDx=0;entryDy=0;exitX=0.5;exitY=1;exitDx=0;exitDy=0;" edge="1" parent="1" source="P7VmRZu7HZeBI5Y8xL4--30" target="P7VmRZu7HZeBI5Y8xL4--2">
          <mxGeometry width="160" relative="1" as="geometry">
            <mxPoint x="780" y="580" as="sourcePoint" />
            <mxPoint x="940" y="580" as="targetPoint" />
          </mxGeometry>
        </mxCell>
      </root>
    </mxGraphModel>
  </diagram>
</mxfile>
